{
	"asset": {
		"generator": "Tilt Brush 18.6.e2ff70c06",
		"version": "1.1",
		"copyright": "Unknown."
	},
	"buffers": {
		"sketch": {
			"byteLength": 70300,
			"type": "arraybuffer",
			"uri": "sketch.bin"
		}
	},
	"accessors": {
		"accessor_position_Paper_f1114e2e-eb8d-4fde-915a-6e653b54e9f5_0_0": {
			"bufferView": "vec3BufferView",
			"byteOffset": 0,
			"byteStride": 12,
			"componentType": 5126,
			"count": 1006,
			"max": [ 0.3654805, 0.748446, -0.2272969 ],
			"min": [ -0.3333407, 0.3818442, -0.8982058 ],
			"type": "VEC3"
		 },
		"accessor_normal_Paper_f1114e2e-eb8d-4fde-915a-6e653b54e9f5_0_0": {
			"bufferView": "vec3BufferView",
			"byteOffset": 12072,
			"byteStride": 12,
			"componentType": 5126,
			"count": 1006,
			"max": [ 0.9011314, 0.9886633, 0.9674595 ],
			"min": [ -0.890774, -0.9991021, -0.9756958 ],
			"type": "VEC3"
		 },
		"accessor_color_Paper_f1114e2e-eb8d-4fde-915a-6e653b54e9f5_0_0": {
			"bufferView": "vec4BufferView",
			"byteOffset": 0,
			"byteStride": 16,
			"componentType": 5126,
			"count": 1006,
			"max": [ 0.3215686, 0.2039216, 0.07843138, 1 ],
			"min": [ 0.3215686, 0.2039216, 0.07843138, 0 ],
			"type": "VEC4"
		 },
		"accessor_tangent_Paper_f1114e2e-eb8d-4fde-915a-6e653b54e9f5_0_0": {
			"bufferView": "vec4BufferView",
			"byteOffset": 16096,
			"byteStride": 16,
			"componentType": 5126,
			"count": 1006,
			"max": [ 0.9996952, 0.638632, 0.9860266, 1 ],
			"min": [ -0.9974232, -0.5309122, -0.9994587, 1 ],
			"type": "VEC4"
		 },
		"accessor_uv0_Paper_f1114e2e-eb8d-4fde-915a-6e653b54e9f5_0_0": {
			"bufferView": "vec2BufferView",
			"byteOffset": 0,
			"byteStride": 8,
			"componentType": 5126,
			"count": 1006,
			"max": [ 8.407212, 1 ],
			"min": [ 0.05882657, 0 ],
			"type": "VEC2"
		 },
		"accessor_indices_0_Paper_f1114e2e-eb8d-4fde-915a-6e653b54e9f5_0_0": {
			"bufferView": "ushortBufferView",
			"byteOffset": 0,
			"byteStride": 0,
			"componentType": 5123,
			"count": 2958,
			"max": [ 1005 ],
			"min": [ 0 ],
			"type": "SCALAR"
		 }
	},
	"bufferViews": {
		"ushortBufferView": {
			"buffer": "sketch",
			"byteLength": 5916,
			"byteOffset": 0,
			"target": 34963
		},
		"vec2BufferView": {
			"buffer": "sketch",
			"byteLength": 8048,
			"byteOffset": 5916,
			"target": 34962
		},
		"vec3BufferView": {
			"buffer": "sketch",
			"byteLength": 24144,
			"byteOffset": 13964,
			"target": 34962
		},
		"vec4BufferView": {
			"buffer": "sketch",
			"byteLength": 32192,
			"byteOffset": 38108,
			"target": 34962
		}
	},
	"meshes": {
		"mesh_Paper_f1114e2e-eb8d-4fde-915a-6e653b54e9f5_0_0": {
			"name": "mesh_Paper_f1114e2e-eb8d-4fde-915a-6e653b54e9f5_0_0",
			"primitives": [
				{
					"attributes": {
						"POSITION": "accessor_position_Paper_f1114e2e-eb8d-4fde-915a-6e653b54e9f5_0_0",
						"NORMAL": "accessor_normal_Paper_f1114e2e-eb8d-4fde-915a-6e653b54e9f5_0_0",
						"COLOR": "accessor_color_Paper_f1114e2e-eb8d-4fde-915a-6e653b54e9f5_0_0",
						"TANGENT": "accessor_tangent_Paper_f1114e2e-eb8d-4fde-915a-6e653b54e9f5_0_0",
						"TEXCOORD_0": "accessor_uv0_Paper_f1114e2e-eb8d-4fde-915a-6e653b54e9f5_0_0"
					},
					"indices": "accessor_indices_0_Paper_f1114e2e-eb8d-4fde-915a-6e653b54e9f5_0_0",
					"material": "material_f1114e2e-eb8d-4fde-915a-6e653b54e9f5",
					"mode": 4
				}
			]
		}
	},
	"shaders": {
		"vertex_f1114e2e-eb8d-4fde-915a-6e653b54e9f5": {
			"type": 35633,
			"uri": "https://www.tiltbrush.com/shaders/brushes/Paper-f1114e2e-eb8d-4fde-915a-6e653b54e9f5/Paper-f1114e2e-eb8d-4fde-915a-6e653b54e9f5-v10.0-vertex.glsl"
		},
		"fragment_f1114e2e-eb8d-4fde-915a-6e653b54e9f5": {
			"type": 35632,
			"uri": "https://www.tiltbrush.com/shaders/brushes/Paper-f1114e2e-eb8d-4fde-915a-6e653b54e9f5/Paper-f1114e2e-eb8d-4fde-915a-6e653b54e9f5-v10.0-fragment.glsl"
		}
	},
	"programs": {
		"program_f1114e2e-eb8d-4fde-915a-6e653b54e9f5": {
			"attributes": [
				"a_position",
				"a_normal",
				"a_color",
				"a_tangent",
				"a_texcoord0"				
			],
			"vertexShader": "vertex_f1114e2e-eb8d-4fde-915a-6e653b54e9f5",
			"fragmentShader": "fragment_f1114e2e-eb8d-4fde-915a-6e653b54e9f5"
		}
	},
	"techniques": {
		"technique_f1114e2e-eb8d-4fde-915a-6e653b54e9f5": {
			"program": "program_f1114e2e-eb8d-4fde-915a-6e653b54e9f5",
			"parameters": {
				"position": {
					"type": 35665,
					"semantic": "POSITION"
				},
				"normal": {
					"type": 35665,
					"semantic": "NORMAL"
				},
				"color": {
					"type": 35666,
					"semantic": "COLOR"
				},
				"tangent": {
					"type": 35666,
					"semantic": "TANGENT"
				},
				"texcoord0": {
					"type": 35664,
					"semantic": "TEXCOORD_0"
				},
				"modelViewMatrix": {
					"type": 35676,
					"semantic": "MODELVIEW"
				},
				"projectionMatrix": {
					"type": 35676,
					"semantic": "PROJECTION"
				},
				"normalMatrix": {
					"type": 35675,
					"semantic": "MODELVIEWINVERSETRANSPOSE"
				},
				"SceneLight_0_matrix": {
					"type": 35676,
					"semantic": "MODELVIEW",
					"node": "node_SceneLight_0_-3064"
				},
				"SceneLight_0_color": {
					"type": 35666,
					"node": "node_SceneLight_0_-3064"
				},
				"SceneLight_1_matrix": {
					"type": 35676,
					"semantic": "MODELVIEW",
					"node": "node_SceneLight_1_-3070"
				},
				"SceneLight_1_color": {
					"type": 35666,
					"node": "node_SceneLight_1_-3070"
				},
				"ambient_light_color": {
					"type": 35666
				},
				"Shininess": {
					"type": 5126
				},
				"Cutoff": {
					"type": 5126
				},
				"Color": {
					"type": 35666
				},
				"SpecColor": {
					"type": 35666
				},
				"MainTex_TexelSize": {
					"type": 35666
				},
				"BumpMap_TexelSize": {
					"type": 35666
				},
				"MainTex": {
					"type": 35678
				},
				"BumpMap": {
					"type": 35678
				}				
			},
			"attributes": {
				"a_position": "position",
				"a_normal": "normal",
				"a_color": "color",
				"a_tangent": "tangent",
				"a_texcoord0": "texcoord0"				
			},
			"uniforms": {
				"u_modelViewMatrix": "modelViewMatrix",
				"u_projectionMatrix": "projectionMatrix",
				"u_normalMatrix": "normalMatrix",
				"u_SceneLight_0_matrix": "SceneLight_0_matrix",
				"u_SceneLight_0_color": "SceneLight_0_color",
				"u_SceneLight_1_matrix": "SceneLight_1_matrix",
				"u_SceneLight_1_color": "SceneLight_1_color",
				"u_ambient_light_color": "ambient_light_color",
				"u_Shininess": "Shininess",
				"u_Cutoff": "Cutoff",
				"u_Color": "Color",
				"u_SpecColor": "SpecColor",
				"u_MainTex_TexelSize": "MainTex_TexelSize",
				"u_BumpMap_TexelSize": "BumpMap_TexelSize",
				"u_MainTex": "MainTex",
				"u_BumpMap": "BumpMap"				
			},
			"states": {
				"enable": [
					2929
				],
				"functions": {
					"depthMask": [true]
				}
			}
		}
	},
	"samplers": {
		"sampler_LINEAR_LINEAR_REPEAT": {
			"magFilter": 9729,
			"minFilter": 9987,
			"wrapS": 10497,
			"wrapT": 10497
		}
	},
	"textures": {
		"texture_f1114e2e-eb8d-4fde-915a-6e653b54e9f5_MainTex": {
			"format": 6408,
			"internalFormat": 6408,
			"sampler": "sampler_LINEAR_LINEAR_REPEAT",
			"source": "image_f1114e2e-eb8d-4fde-915a-6e653b54e9f5_MainTex",
			"target": 3553,
			"type": 5121
		},
		"texture_f1114e2e-eb8d-4fde-915a-6e653b54e9f5_BumpMap": {
			"format": 6408,
			"internalFormat": 6408,
			"sampler": "sampler_LINEAR_LINEAR_REPEAT",
			"source": "image_f1114e2e-eb8d-4fde-915a-6e653b54e9f5_BumpMap",
			"target": 3553,
			"type": 5121
		}
	},
	"images": {
		"image_f1114e2e-eb8d-4fde-915a-6e653b54e9f5_MainTex": {
			"uri": "https://www.tiltbrush.com/shaders/brushes/Paper-f1114e2e-eb8d-4fde-915a-6e653b54e9f5/Paper-f1114e2e-eb8d-4fde-915a-6e653b54e9f5-v10.0-MainTex.png"
		},
		"image_f1114e2e-eb8d-4fde-915a-6e653b54e9f5_BumpMap": {
			"uri": "https://www.tiltbrush.com/shaders/brushes/Paper-f1114e2e-eb8d-4fde-915a-6e653b54e9f5/Paper-f1114e2e-eb8d-4fde-915a-6e653b54e9f5-v10.0-BumpMap.png"
		}
	},
	"materials": {
		"material_f1114e2e-eb8d-4fde-915a-6e653b54e9f5": {
			"technique": "technique_f1114e2e-eb8d-4fde-915a-6e653b54e9f5",
			"values": {
				"SceneLight_0_color": [0.7780392, 0.8156863, 0.9913726, 1],
				"SceneLight_1_color": [0.4282353, 0.4211765, 0.3458824, 1],
				"ambient_light_color": [0.3921569, 0.3921569, 0.3921569, 1],
				"Shininess": 0.145,
				"Cutoff": 0.16,
				"Color": [1, 1, 1, 1],
				"SpecColor": [0.1411765, 0.1411765, 0.1411765, 1],
				"MainTex_TexelSize": [0.0009765625, 0.0078125, 1024, 128],
				"BumpMap_TexelSize": [0.0009765625, 0.0078125, 1024, 128],
				"MainTex": "texture_f1114e2e-eb8d-4fde-915a-6e653b54e9f5_MainTex",
				"BumpMap": "texture_f1114e2e-eb8d-4fde-915a-6e653b54e9f5_BumpMap"				
			},
			"name": "material_f1114e2e-eb8d-4fde-915a-6e653b54e9f5"
		}
	},
	"nodes": {
		"node_Paper_f1114e2e-eb8d-4fde-915a-6e653b54e9f5_0_0": {
			"name": "node_Paper_f1114e2e-eb8d-4fde-915a-6e653b54e9f5_0_0",
			"meshes": [
				"mesh_Paper_f1114e2e-eb8d-4fde-915a-6e653b54e9f5_0_0"
			],
			"matrix": [1, 0, 0, 0, 0, 1, 0, 0, 0, 0, 1, 0, 0, 0, 0, 1]
		},
		"node_SceneLight_0_-3064": {
			"name": "node_SceneLight_0_-3064",
			"light": "SceneLight_0",
			"matrix": [0.898794, 0.2191856, -0.3796406, 0, -0.4383712, 0.449397, -0.7783785, 0, -1.490116E-08, 0.8660254, 0.4999999, 0, 0.4064067, -0.7084918, 0.3588828, 1]
		},
		"node_SceneLight_1_-3070": {
			"name": "node_SceneLight_1_-3070",
			"light": "SceneLight_1",
			"matrix": [0.7660444, -0.4924039, -0.4131759, 0, -0.6427876, -0.5868242, -0.4924039, 0, 8.940697E-08, 0.6427876, -0.7660446, 0, 0.4064067, -0.7236387, 0.2729809, 1]
		}
	},
	"scene": "defaultScene",
	"scenes": {
		"defaultScene": {
			"nodes": [
				"node_Paper_f1114e2e-eb8d-4fde-915a-6e653b54e9f5_0_0",
				"node_SceneLight_0_-3064",
				"node_SceneLight_1_-3070"
			],
			"extras": {
				"TB_EnvironmentGuid": "ab080599-e465-4a6d-8587-43bf495af68b",
				"TB_Environment": "Standard",
				"TB_UseGradient": "true",
				"TB_SkyColorA": "0.2745098, 0.2745098, 0.3176471",
				"TB_SkyColorB": "0.03529412, 0.03529412, 0.08627451",
				"TB_SkyGradientDirection": "0, 1, 0",
				"TB_FogColor": "0.1647059, 0.1647059, 0.2078431",
				"TB_FogDensity": "0.0025",
				"TB_SkyColorHorizon": "0.2745098, 0.2745098, 0.3176471",
				"TB_SkyColorZenith": "0.03529412, 0.03529412, 0.08627451"
			}
		}
	}
}