{
	"asset": {
		"generator": "Tilt Brush 18.6.e2ff70c06",
		"version": "1.1",
		"copyright": "Unknown."
	},
	"buffers": {
		"sketch": {
			"byteLength": 606468,
			"type": "arraybuffer",
			"uri": "sketch.bin"
		}
	},
	"accessors": {
		"accessor_position_Spikes_cf7f0059-7aeb-53a4-2b67-c83d863a9ffa_0_0": {
			"bufferView": "vec3BufferView",
			"byteOffset": 0,
			"byteStride": 12,
			"componentType": 5126,
			"count": 156,
			"max": [ 0.004945374, 1.620561, -0.8182666 ],
			"min": [ -0.02700787, 1.504093, -0.8409376 ],
			"type": "VEC3"
		 },
		"accessor_normal_Spikes_cf7f0059-7aeb-53a4-2b67-c83d863a9ffa_0_0": {
			"bufferView": "vec3BufferView",
			"byteOffset": 1872,
			"byteStride": 12,
			"componentType": 5126,
			"count": 156,
			"max": [ 0.927178, 0.9861048, 0.9997656 ],
			"min": [ -0.871524, -0.6300057, -0.6304319 ],
			"type": "VEC3"
		 },
		"accessor_color_Spikes_cf7f0059-7aeb-53a4-2b67-c83d863a9ffa_0_0": {
			"bufferView": "vec4BufferView",
			"byteOffset": 0,
			"byteStride": 16,
			"componentType": 5126,
			"count": 156,
			"max": [ 0.3098039, 0.1960784, 0.03529412, 1 ],
			"min": [ 0.3098039, 0.1960784, 0.03529412, 1 ],
			"type": "VEC4"
		 },
		"accessor_tangent_Spikes_cf7f0059-7aeb-53a4-2b67-c83d863a9ffa_0_0": {
			"bufferView": "vec4BufferView",
			"byteOffset": 2496,
			"byteStride": 16,
			"componentType": 5126,
			"count": 156,
			"max": [ 0.927178, 0.9861048, 0.988756, 1 ],
			"min": [ -0.927178, -0.9861048, -0.9997657, 1 ],
			"type": "VEC4"
		 },
		"accessor_uv0_Spikes_cf7f0059-7aeb-53a4-2b67-c83d863a9ffa_0_0": {
			"bufferView": "vec2BufferView",
			"byteOffset": 0,
			"byteStride": 8,
			"componentType": 5126,
			"count": 156,
			"max": [ 0.9583333, 1 ],
			"min": [ 0, 0 ],
			"type": "VEC2"
		 },
		"accessor_indices_0_Spikes_cf7f0059-7aeb-53a4-2b67-c83d863a9ffa_0_0": {
			"bufferView": "ushortBufferView",
			"byteOffset": 0,
			"byteStride": 0,
			"componentType": 5123,
			"count": 450,
			"max": [ 155 ],
			"min": [ 0 ],
			"type": "SCALAR"
		 },
		"accessor_position_Paper_f1114e2e-eb8d-4fde-915a-6e653b54e9f5_0_0": {
			"bufferView": "vec3BufferView",
			"byteOffset": 3744,
			"byteStride": 12,
			"componentType": 5126,
			"count": 8538,
			"max": [ 0.1217448, 1.564429, -0.7044446 ],
			"min": [ -0.1320115, 1.366303, -0.9503731 ],
			"type": "VEC3"
		 },
		"accessor_normal_Paper_f1114e2e-eb8d-4fde-915a-6e653b54e9f5_0_0": {
			"bufferView": "vec3BufferView",
			"byteOffset": 106200,
			"byteStride": 12,
			"componentType": 5126,
			"count": 8538,
			"max": [ 0.9992702, 0.9999599, 0.9949151 ],
			"min": [ -0.9988469, -0.9998049, -0.9982234 ],
			"type": "VEC3"
		 },
		"accessor_color_Paper_f1114e2e-eb8d-4fde-915a-6e653b54e9f5_0_0": {
			"bufferView": "vec4BufferView",
			"byteOffset": 4992,
			"byteStride": 16,
			"componentType": 5126,
			"count": 8538,
			"max": [ 0.6901961, 0.7607843, 0.1686275, 1 ],
			"min": [ 0.6901961, 0.7607843, 0.1686275, 0 ],
			"type": "VEC4"
		 },
		"accessor_tangent_Paper_f1114e2e-eb8d-4fde-915a-6e653b54e9f5_0_0": {
			"bufferView": "vec4BufferView",
			"byteOffset": 141600,
			"byteStride": 16,
			"componentType": 5126,
			"count": 8538,
			"max": [ 0.9995902, 0.9999818, 0.9998184, 1 ],
			"min": [ -0.997126, -0.9999751, -0.999386, 1 ],
			"type": "VEC4"
		 },
		"accessor_uv0_Paper_f1114e2e-eb8d-4fde-915a-6e653b54e9f5_0_0": {
			"bufferView": "vec2BufferView",
			"byteOffset": 1248,
			"byteStride": 8,
			"componentType": 5126,
			"count": 8538,
			"max": [ 2.61701, 1 ],
			"min": [ 9.869598E-05, 0 ],
			"type": "VEC2"
		 },
		"accessor_indices_0_Paper_f1114e2e-eb8d-4fde-915a-6e653b54e9f5_0_0": {
			"bufferView": "ushortBufferView",
			"byteOffset": 900,
			"byteStride": 0,
			"componentType": 5123,
			"count": 24576,
			"max": [ 8537 ],
			"min": [ 0 ],
			"type": "SCALAR"
		 }
	},
	"bufferViews": {
		"ushortBufferView": {
			"buffer": "sketch",
			"byteLength": 50052,
			"byteOffset": 0,
			"target": 34963
		},
		"vec2BufferView": {
			"buffer": "sketch",
			"byteLength": 69552,
			"byteOffset": 50052,
			"target": 34962
		},
		"vec3BufferView": {
			"buffer": "sketch",
			"byteLength": 208656,
			"byteOffset": 119604,
			"target": 34962
		},
		"vec4BufferView": {
			"buffer": "sketch",
			"byteLength": 278208,
			"byteOffset": 328260,
			"target": 34962
		}
	},
	"meshes": {
		"mesh_Spikes_cf7f0059-7aeb-53a4-2b67-c83d863a9ffa_0_0": {
			"name": "mesh_Spikes_cf7f0059-7aeb-53a4-2b67-c83d863a9ffa_0_0",
			"primitives": [
				{
					"attributes": {
						"POSITION": "accessor_position_Spikes_cf7f0059-7aeb-53a4-2b67-c83d863a9ffa_0_0",
						"NORMAL": "accessor_normal_Spikes_cf7f0059-7aeb-53a4-2b67-c83d863a9ffa_0_0",
						"COLOR": "accessor_color_Spikes_cf7f0059-7aeb-53a4-2b67-c83d863a9ffa_0_0",
						"TANGENT": "accessor_tangent_Spikes_cf7f0059-7aeb-53a4-2b67-c83d863a9ffa_0_0",
						"TEXCOORD_0": "accessor_uv0_Spikes_cf7f0059-7aeb-53a4-2b67-c83d863a9ffa_0_0"
					},
					"indices": "accessor_indices_0_Spikes_cf7f0059-7aeb-53a4-2b67-c83d863a9ffa_0_0",
					"material": "material_cf7f0059-7aeb-53a4-2b67-c83d863a9ffa",
					"mode": 4
				}
			]
		},
		"mesh_Paper_f1114e2e-eb8d-4fde-915a-6e653b54e9f5_0_0": {
			"name": "mesh_Paper_f1114e2e-eb8d-4fde-915a-6e653b54e9f5_0_0",
			"primitives": [
				{
					"attributes": {
						"POSITION": "accessor_position_Paper_f1114e2e-eb8d-4fde-915a-6e653b54e9f5_0_0",
						"NORMAL": "accessor_normal_Paper_f1114e2e-eb8d-4fde-915a-6e653b54e9f5_0_0",
						"COLOR": "accessor_color_Paper_f1114e2e-eb8d-4fde-915a-6e653b54e9f5_0_0",
						"TANGENT": "accessor_tangent_Paper_f1114e2e-eb8d-4fde-915a-6e653b54e9f5_0_0",
						"TEXCOORD_0": "accessor_uv0_Paper_f1114e2e-eb8d-4fde-915a-6e653b54e9f5_0_0"
					},
					"indices": "accessor_indices_0_Paper_f1114e2e-eb8d-4fde-915a-6e653b54e9f5_0_0",
					"material": "material_f1114e2e-eb8d-4fde-915a-6e653b54e9f5",
					"mode": 4
				}
			]
		}
	},
	"shaders": {
		"vertex_cf7f0059-7aeb-53a4-2b67-c83d863a9ffa": {
			"type": 35633,
			"uri": "https://www.tiltbrush.com/shaders/brushes/Spikes-cf7f0059-7aeb-53a4-2b67-c83d863a9ffa/Spikes-cf7f0059-7aeb-53a4-2b67-c83d863a9ffa-v10.0-vertex.glsl"
		},
		"fragment_cf7f0059-7aeb-53a4-2b67-c83d863a9ffa": {
			"type": 35632,
			"uri": "https://www.tiltbrush.com/shaders/brushes/Spikes-cf7f0059-7aeb-53a4-2b67-c83d863a9ffa/Spikes-cf7f0059-7aeb-53a4-2b67-c83d863a9ffa-v10.0-fragment.glsl"
		},
		"vertex_f1114e2e-eb8d-4fde-915a-6e653b54e9f5": {
			"type": 35633,
			"uri": "https://www.tiltbrush.com/shaders/brushes/Paper-f1114e2e-eb8d-4fde-915a-6e653b54e9f5/Paper-f1114e2e-eb8d-4fde-915a-6e653b54e9f5-v10.0-vertex.glsl"
		},
		"fragment_f1114e2e-eb8d-4fde-915a-6e653b54e9f5": {
			"type": 35632,
			"uri": "https://www.tiltbrush.com/shaders/brushes/Paper-f1114e2e-eb8d-4fde-915a-6e653b54e9f5/Paper-f1114e2e-eb8d-4fde-915a-6e653b54e9f5-v10.0-fragment.glsl"
		}
	},
	"programs": {
		"program_cf7f0059-7aeb-53a4-2b67-c83d863a9ffa": {
			"attributes": [
				"a_position",
				"a_normal",
				"a_color",
				"a_tangent",
				"a_texcoord0"				
			],
			"vertexShader": "vertex_cf7f0059-7aeb-53a4-2b67-c83d863a9ffa",
			"fragmentShader": "fragment_cf7f0059-7aeb-53a4-2b67-c83d863a9ffa"
		},
		"program_f1114e2e-eb8d-4fde-915a-6e653b54e9f5": {
			"attributes": [
				"a_position",
				"a_normal",
				"a_color",
				"a_tangent",
				"a_texcoord0"				
			],
			"vertexShader": "vertex_f1114e2e-eb8d-4fde-915a-6e653b54e9f5",
			"fragmentShader": "fragment_f1114e2e-eb8d-4fde-915a-6e653b54e9f5"
		}
	},
	"techniques": {
		"technique_cf7f0059-7aeb-53a4-2b67-c83d863a9ffa": {
			"program": "program_cf7f0059-7aeb-53a4-2b67-c83d863a9ffa",
			"parameters": {
				"position": {
					"type": 35665,
					"semantic": "POSITION"
				},
				"normal": {
					"type": 35665,
					"semantic": "NORMAL"
				},
				"color": {
					"type": 35666,
					"semantic": "COLOR"
				},
				"tangent": {
					"type": 35666,
					"semantic": "TANGENT"
				},
				"texcoord0": {
					"type": 35664,
					"semantic": "TEXCOORD_0"
				},
				"modelViewMatrix": {
					"type": 35676,
					"semantic": "MODELVIEW"
				},
				"projectionMatrix": {
					"type": 35676,
					"semantic": "PROJECTION"
				},
				"normalMatrix": {
					"type": 35675,
					"semantic": "MODELVIEWINVERSETRANSPOSE"
				},
				"SceneLight_0_matrix": {
					"type": 35676,
					"semantic": "MODELVIEW",
					"node": "node_SceneLight_0_-3064"
				},
				"SceneLight_0_color": {
					"type": 35666,
					"node": "node_SceneLight_0_-3064"
				},
				"SceneLight_1_matrix": {
					"type": 35676,
					"semantic": "MODELVIEW",
					"node": "node_SceneLight_1_-3070"
				},
				"SceneLight_1_color": {
					"type": 35666,
					"node": "node_SceneLight_1_-3070"
				},
				"ambient_light_color": {
					"type": 35666
				},
				"Color": {
					"type": 35666
				}				
			},
			"attributes": {
				"a_position": "position",
				"a_normal": "normal",
				"a_color": "color",
				"a_tangent": "tangent",
				"a_texcoord0": "texcoord0"				
			},
			"uniforms": {
				"u_modelViewMatrix": "modelViewMatrix",
				"u_projectionMatrix": "projectionMatrix",
				"u_normalMatrix": "normalMatrix",
				"u_SceneLight_0_matrix": "SceneLight_0_matrix",
				"u_SceneLight_0_color": "SceneLight_0_color",
				"u_SceneLight_1_matrix": "SceneLight_1_matrix",
				"u_SceneLight_1_color": "SceneLight_1_color",
				"u_ambient_light_color": "ambient_light_color",
				"u_Color": "Color"				
			},
			"states": {
				"enable": [
					2929,
					2884
				],
				"functions": {
					"depthMask": [true]
				}
			}
		},
		"technique_f1114e2e-eb8d-4fde-915a-6e653b54e9f5": {
			"program": "program_f1114e2e-eb8d-4fde-915a-6e653b54e9f5",
			"parameters": {
				"position": {
					"type": 35665,
					"semantic": "POSITION"
				},
				"normal": {
					"type": 35665,
					"semantic": "NORMAL"
				},
				"color": {
					"type": 35666,
					"semantic": "COLOR"
				},
				"tangent": {
					"type": 35666,
					"semantic": "TANGENT"
				},
				"texcoord0": {
					"type": 35664,
					"semantic": "TEXCOORD_0"
				},
				"modelViewMatrix": {
					"type": 35676,
					"semantic": "MODELVIEW"
				},
				"projectionMatrix": {
					"type": 35676,
					"semantic": "PROJECTION"
				},
				"normalMatrix": {
					"type": 35675,
					"semantic": "MODELVIEWINVERSETRANSPOSE"
				},
				"SceneLight_0_matrix": {
					"type": 35676,
					"semantic": "MODELVIEW",
					"node": "node_SceneLight_0_-3064"
				},
				"SceneLight_0_color": {
					"type": 35666,
					"node": "node_SceneLight_0_-3064"
				},
				"SceneLight_1_matrix": {
					"type": 35676,
					"semantic": "MODELVIEW",
					"node": "node_SceneLight_1_-3070"
				},
				"SceneLight_1_color": {
					"type": 35666,
					"node": "node_SceneLight_1_-3070"
				},
				"ambient_light_color": {
					"type": 35666
				},
				"Shininess": {
					"type": 5126
				},
				"Cutoff": {
					"type": 5126
				},
				"Color": {
					"type": 35666
				},
				"SpecColor": {
					"type": 35666
				},
				"MainTex_TexelSize": {
					"type": 35666
				},
				"BumpMap_TexelSize": {
					"type": 35666
				},
				"MainTex": {
					"type": 35678
				},
				"BumpMap": {
					"type": 35678
				}				
			},
			"attributes": {
				"a_position": "position",
				"a_normal": "normal",
				"a_color": "color",
				"a_tangent": "tangent",
				"a_texcoord0": "texcoord0"				
			},
			"uniforms": {
				"u_modelViewMatrix": "modelViewMatrix",
				"u_projectionMatrix": "projectionMatrix",
				"u_normalMatrix": "normalMatrix",
				"u_SceneLight_0_matrix": "SceneLight_0_matrix",
				"u_SceneLight_0_color": "SceneLight_0_color",
				"u_SceneLight_1_matrix": "SceneLight_1_matrix",
				"u_SceneLight_1_color": "SceneLight_1_color",
				"u_ambient_light_color": "ambient_light_color",
				"u_Shininess": "Shininess",
				"u_Cutoff": "Cutoff",
				"u_Color": "Color",
				"u_SpecColor": "SpecColor",
				"u_MainTex_TexelSize": "MainTex_TexelSize",
				"u_BumpMap_TexelSize": "BumpMap_TexelSize",
				"u_MainTex": "MainTex",
				"u_BumpMap": "BumpMap"				
			},
			"states": {
				"enable": [
					2929
				],
				"functions": {
					"depthMask": [true]
				}
			}
		}
	},
	"samplers": {
		"sampler_LINEAR_LINEAR_REPEAT": {
			"magFilter": 9729,
			"minFilter": 9987,
			"wrapS": 10497,
			"wrapT": 10497
		}
	},
	"textures": {
		"texture_f1114e2e-eb8d-4fde-915a-6e653b54e9f5_MainTex": {
			"format": 6408,
			"internalFormat": 6408,
			"sampler": "sampler_LINEAR_LINEAR_REPEAT",
			"source": "image_f1114e2e-eb8d-4fde-915a-6e653b54e9f5_MainTex",
			"target": 3553,
			"type": 5121
		},
		"texture_f1114e2e-eb8d-4fde-915a-6e653b54e9f5_BumpMap": {
			"format": 6408,
			"internalFormat": 6408,
			"sampler": "sampler_LINEAR_LINEAR_REPEAT",
			"source": "image_f1114e2e-eb8d-4fde-915a-6e653b54e9f5_BumpMap",
			"target": 3553,
			"type": 5121
		}
	},
	"images": {
		"image_f1114e2e-eb8d-4fde-915a-6e653b54e9f5_MainTex": {
			"uri": "https://www.tiltbrush.com/shaders/brushes/Paper-f1114e2e-eb8d-4fde-915a-6e653b54e9f5/Paper-f1114e2e-eb8d-4fde-915a-6e653b54e9f5-v10.0-MainTex.png"
		},
		"image_f1114e2e-eb8d-4fde-915a-6e653b54e9f5_BumpMap": {
			"uri": "https://www.tiltbrush.com/shaders/brushes/Paper-f1114e2e-eb8d-4fde-915a-6e653b54e9f5/Paper-f1114e2e-eb8d-4fde-915a-6e653b54e9f5-v10.0-BumpMap.png"
		}
	},
	"materials": {
		"material_cf7f0059-7aeb-53a4-2b67-c83d863a9ffa": {
			"technique": "technique_cf7f0059-7aeb-53a4-2b67-c83d863a9ffa",
			"values": {
				"SceneLight_0_color": [0.7780392, 0.8156863, 0.9913726, 1],
				"SceneLight_1_color": [0.4282353, 0.4211765, 0.3458824, 1],
				"ambient_light_color": [0.3921569, 0.3921569, 0.3921569, 1],
				"Color": [1, 1, 1, 1]				
			},
			"name": "material_cf7f0059-7aeb-53a4-2b67-c83d863a9ffa"
		},
		"material_f1114e2e-eb8d-4fde-915a-6e653b54e9f5": {
			"technique": "technique_f1114e2e-eb8d-4fde-915a-6e653b54e9f5",
			"values": {
				"SceneLight_0_color": [0.7780392, 0.8156863, 0.9913726, 1],
				"SceneLight_1_color": [0.4282353, 0.4211765, 0.3458824, 1],
				"ambient_light_color": [0.3921569, 0.3921569, 0.3921569, 1],
				"Shininess": 0.145,
				"Cutoff": 0.16,
				"Color": [1, 1, 1, 1],
				"SpecColor": [0.1411765, 0.1411765, 0.1411765, 1],
				"MainTex_TexelSize": [0.0009765625, 0.0078125, 1024, 128],
				"BumpMap_TexelSize": [0.0009765625, 0.0078125, 1024, 128],
				"MainTex": "texture_f1114e2e-eb8d-4fde-915a-6e653b54e9f5_MainTex",
				"BumpMap": "texture_f1114e2e-eb8d-4fde-915a-6e653b54e9f5_BumpMap"				
			},
			"name": "material_f1114e2e-eb8d-4fde-915a-6e653b54e9f5"
		}
	},
	"nodes": {
		"node_Spikes_cf7f0059-7aeb-53a4-2b67-c83d863a9ffa_0_0": {
			"name": "node_Spikes_cf7f0059-7aeb-53a4-2b67-c83d863a9ffa_0_0",
			"meshes": [
				"mesh_Spikes_cf7f0059-7aeb-53a4-2b67-c83d863a9ffa_0_0"
			],
			"matrix": [1, 0, 0, 0, 0, 1, 0, 0, 0, 0, 1, 0, 0, 0, 0, 1]
		},
		"node_SceneLight_0_-3064": {
			"name": "node_SceneLight_0_-3064",
			"light": "SceneLight_0",
			"matrix": [0.898794, 0.2191856, -0.3796406, 0, -0.4383712, 0.449397, -0.7783785, 0, -1.490116E-08, 0.8660254, 0.4999999, 0, -0.6065566, -1.326903, -0.003172162, 1]
		},
		"node_SceneLight_1_-3070": {
			"name": "node_SceneLight_1_-3070",
			"light": "SceneLight_1",
			"matrix": [0.7660444, -0.4924039, -0.4131759, 0, -0.6427876, -0.5868242, -0.4924039, 0, 8.940697E-08, 0.6427876, -0.7660446, 0, -0.6065566, -1.3538, -0.1557131, 1]
		},
		"node_Paper_f1114e2e-eb8d-4fde-915a-6e653b54e9f5_0_0": {
			"name": "node_Paper_f1114e2e-eb8d-4fde-915a-6e653b54e9f5_0_0",
			"meshes": [
				"mesh_Paper_f1114e2e-eb8d-4fde-915a-6e653b54e9f5_0_0"
			],
			"matrix": [1, 0, 0, 0, 0, 1, 0, 0, 0, 0, 1, 0, 0, 0, 0, 1]
		}
	},
	"scene": "defaultScene",
	"scenes": {
		"defaultScene": {
			"nodes": [
				"node_Spikes_cf7f0059-7aeb-53a4-2b67-c83d863a9ffa_0_0",
				"node_SceneLight_0_-3064",
				"node_SceneLight_1_-3070",
				"node_Paper_f1114e2e-eb8d-4fde-915a-6e653b54e9f5_0_0"
			],
			"extras": {
				"TB_EnvironmentGuid": "ab080599-e465-4a6d-8587-43bf495af68b",
				"TB_Environment": "Standard",
				"TB_UseGradient": "true",
				"TB_SkyColorA": "0.2745098, 0.2745098, 0.3176471",
				"TB_SkyColorB": "0.03529412, 0.03529412, 0.08627451",
				"TB_SkyGradientDirection": "0, 1, 0",
				"TB_FogColor": "0.1647059, 0.1647059, 0.2078431",
				"TB_FogDensity": "0.0025",
				"TB_SkyColorHorizon": "0.2745098, 0.2745098, 0.3176471",
				"TB_SkyColorZenith": "0.03529412, 0.03529412, 0.08627451"
			}
		}
	}
}