{
	"asset": {
		"generator": "Blocks",
		"version": "1.0.4",
		"copyright": "Unknown"
	},
	"buffers": {
		"model": {
			"byteLength": 444160,
			"type": "arraybuffer",
			"uri": "model.bin"
		}
	},
	"accessors": {
		"accessor_position_m0-PolyPaper23_-129190": {
			"bufferView": "vec3BufferView",
			"byteOffset": 0,
			"byteStride": 12,
			"componentType": 5126,
			"count": 408,
			"max": [ 0.2986587, 1.789317, 0.023097 ],
			"min": [ 0.2665055, 1.751154, 0.003037505 ],
			"type": "VEC3"
		 },
		"accessor_normal_m0-PolyPaper23_-129190": {
			"bufferView": "vec3BufferView",
			"byteOffset": 4896,
			"byteStride": 12,
			"componentType": 5126,
			"count": 408,
			"max": [ 0.9587218, 0.9755349, 0.9943744 ],
			"min": [ -0.9587219, -0.9755349, -0.9943743 ],
			"type": "VEC3"
		 },
		"accessor_color_m0-PolyPaper23_-129190": {
			"bufferView": "vec4BufferView",
			"byteOffset": 0,
			"byteStride": 16,
			"componentType": 5126,
			"count": 408,
			"max": [ 0.1019608, 0.1019608, 0.1019608, 1 ],
			"min": [ 0.1019608, 0.1019608, 0.1019608, 1 ],
			"type": "VEC4"
		 },
		"accessor_indices_0_m0-PolyPaper23_-129190": {
			"bufferView": "ushortBufferView",
			"byteOffset": 0,
			"byteStride": 0,
			"componentType": 5123,
			"count": 576,
			"max": [ 407 ],
			"min": [ 0 ],
			"type": "SCALAR"
		 },
		"accessor_position_m1-PolyPaper5_-129174": {
			"bufferView": "vec3BufferView",
			"byteOffset": 9792,
			"byteStride": 12,
			"componentType": 5126,
			"count": 9916,
			"max": [ 0.3312402, 1.813161, 0.3180404 ],
			"min": [ 0.0007596819, 1.349603, -0.4120777 ],
			"type": "VEC3"
		 },
		"accessor_normal_m1-PolyPaper5_-129174": {
			"bufferView": "vec3BufferView",
			"byteOffset": 128784,
			"byteStride": 12,
			"componentType": 5126,
			"count": 9916,
			"max": [ 0.9959263, 0.9997164, 0.9992793 ],
			"min": [ -0.9959263, -0.9997163, -0.9992792 ],
			"type": "VEC3"
		 },
		"accessor_color_m1-PolyPaper5_-129174": {
			"bufferView": "vec4BufferView",
			"byteOffset": 6528,
			"byteStride": 16,
			"componentType": 5126,
			"count": 9916,
			"max": [ 0.9568627, 0.6196079, 0.8980392, 1 ],
			"min": [ 0.01176471, 0.1019608, 0.1019608, 1 ],
			"type": "VEC4"
		 },
		"accessor_indices_0_m1-PolyPaper5_-129174": {
			"bufferView": "ushortBufferView",
			"byteOffset": 1152,
			"byteStride": 0,
			"componentType": 5123,
			"count": 15024,
			"max": [ 9915 ],
			"min": [ 0 ],
			"type": "SCALAR"
		 }
	},
	"bufferViews": {
		"ushortBufferView": {
			"buffer": "model",
			"byteLength": 31200,
			"byteOffset": 0,
			"target": 34963
		},
		"vec3BufferView": {
			"buffer": "model",
			"byteLength": 247776,
			"byteOffset": 31200,
			"target": 34962
		},
		"vec4BufferView": {
			"buffer": "model",
			"byteLength": 165184,
			"byteOffset": 278976,
			"target": 34962
		}
	},
	"meshes": {
		"mesh_m0-PolyPaper23_-129190": {
			"name": "mesh_m0-PolyPaper23_-129190",
			"primitives": [
				{
					"attributes": {
						"POSITION": "accessor_position_m0-PolyPaper23_-129190",
						"NORMAL": "accessor_normal_m0-PolyPaper23_-129190",
						"COLOR": "accessor_color_m0-PolyPaper23_-129190"
					},
					"indices": "accessor_indices_0_m0-PolyPaper23_-129190",
					"material": "material_mat23",
					"mode": 4
				}
			]
		},
		"mesh_m1-PolyPaper5_-129174": {
			"name": "mesh_m1-PolyPaper5_-129174",
			"primitives": [
				{
					"attributes": {
						"POSITION": "accessor_position_m1-PolyPaper5_-129174",
						"NORMAL": "accessor_normal_m1-PolyPaper5_-129174",
						"COLOR": "accessor_color_m1-PolyPaper5_-129174"
					},
					"indices": "accessor_indices_0_m1-PolyPaper5_-129174",
					"material": "material_mat5",
					"mode": 4
				}
			]
		}
	},
	"shaders": {
		"vertex_mat23": {
			"type": 35633,
			"uri": "https://vr.google.com/shaders/w/vs.glsl"
		},
		"fragment_mat23": {
			"type": 35632,
			"uri": "https://vr.google.com/shaders/w/fs.glsl"
		},
		"vertex_mat5": {
			"type": 35633,
			"uri": "https://vr.google.com/shaders/w/vs.glsl"
		},
		"fragment_mat5": {
			"type": 35632,
			"uri": "https://vr.google.com/shaders/w/fs.glsl"
		}
	},
	"programs": {
		"program_mat23": {
			"attributes": [
				"a_position",
				"a_normal",
				"a_color"				
			],
			"vertexShader": "vertex_mat23",
			"fragmentShader": "fragment_mat23"
		},
		"program_mat5": {
			"attributes": [
				"a_position",
				"a_normal",
				"a_color"				
			],
			"vertexShader": "vertex_mat5",
			"fragmentShader": "fragment_mat5"
		}
	},
	"techniques": {
		"technique_mat23": {
			"program": "program_mat23",
			"extras": {"gvrss" : "https://vr.google.com/shaders/w/gvrss/paper.json"},
			"parameters": {
				"position": {
					"type": 35665,
					"semantic": "POSITION"
				},
				"normal": {
					"type": 35665,
					"semantic": "NORMAL"
				},
				"color": {
					"type": 35666,
					"semantic": "COLOR"
				},
				"modelViewMatrix": {
					"type": 35676,
					"semantic": "MODELVIEW"
				},
				"projectionMatrix": {
					"type": 35676,
					"semantic": "PROJECTION"
				},
				"normalMatrix": {
					"type": 35675,
					"semantic": "MODELVIEWINVERSETRANSPOSE"
				},
				"color": {
					"type": 35666
				},
				"roughness": {
					"type": 5126
				},
				"metallic": {
					"type": 5126
				},
				"light0Pos": {
					"type": 35666
				},
				"light0Color": {
					"type": 35666
				},
				"light1Pos": {
					"type": 35666
				},
				"light1Color": {
					"type": 35666
				}				
			},
			"attributes": {
				"a_position": "position",
				"a_normal": "normal",
				"a_color": "color"				
			},
			"uniforms": {
				"u_modelViewMatrix": "modelViewMatrix",
				"u_projectionMatrix": "projectionMatrix",
				"u_normalMatrix": "normalMatrix",
				"u_color": "color",
				"u_roughness": "roughness",
				"u_metallic": "metallic",
				"u_light0Pos": "light0Pos",
				"u_light0Color": "light0Color",
				"u_light1Pos": "light1Pos",
				"u_light1Color": "light1Color"				
			},
			"states": {
				"enable": [
					2929,
					2884
				],
				"functions": {
					"cullFace": [1029]
				}
			}
		},
		"technique_mat5": {
			"program": "program_mat5",
			"extras": {"gvrss" : "https://vr.google.com/shaders/w/gvrss/paper.json"},
			"parameters": {
				"position": {
					"type": 35665,
					"semantic": "POSITION"
				},
				"normal": {
					"type": 35665,
					"semantic": "NORMAL"
				},
				"color": {
					"type": 35666,
					"semantic": "COLOR"
				},
				"modelViewMatrix": {
					"type": 35676,
					"semantic": "MODELVIEW"
				},
				"projectionMatrix": {
					"type": 35676,
					"semantic": "PROJECTION"
				},
				"normalMatrix": {
					"type": 35675,
					"semantic": "MODELVIEWINVERSETRANSPOSE"
				},
				"color": {
					"type": 35666
				},
				"roughness": {
					"type": 5126
				},
				"metallic": {
					"type": 5126
				},
				"light0Pos": {
					"type": 35666
				},
				"light0Color": {
					"type": 35666
				},
				"light1Pos": {
					"type": 35666
				},
				"light1Color": {
					"type": 35666
				}				
			},
			"attributes": {
				"a_position": "position",
				"a_normal": "normal",
				"a_color": "color"				
			},
			"uniforms": {
				"u_modelViewMatrix": "modelViewMatrix",
				"u_projectionMatrix": "projectionMatrix",
				"u_normalMatrix": "normalMatrix",
				"u_color": "color",
				"u_roughness": "roughness",
				"u_metallic": "metallic",
				"u_light0Pos": "light0Pos",
				"u_light0Color": "light0Color",
				"u_light1Pos": "light1Pos",
				"u_light1Color": "light1Color"				
			},
			"states": {
				"enable": [
					2929,
					2884
				],
				"functions": {
					"cullFace": [1029]
				}
			}
		}
	},
	"materials": {
		"material_mat23": {
			"technique": "technique_mat23",
			"values": {
				"color": [0.1019608, 0.1019608, 0.1019608, 1],
				"roughness": 0.72,
				"metallic": 0,
				"light0Pos": [-0.02, 4.11, -0.54, 0],
				"light0Color": [0.8, 0.8, 0.8, 0],
				"light1Pos": [0.02, -4.11, 0.54, 0],
				"light1Color": [0.64, 0.5647059, 0.5647059, 0]				
			},
			"name": "material_mat23"
		},
		"material_mat5": {
			"technique": "technique_mat5",
			"values": {
				"color": [0.01176471, 0.6078432, 0.8980392, 1],
				"roughness": 0.72,
				"metallic": 0,
				"light0Pos": [-0.02, 4.11, -0.54, 0],
				"light0Color": [0.8, 0.8, 0.8, 0],
				"light1Pos": [0.02, -4.11, 0.54, 0],
				"light1Color": [0.64, 0.5647059, 0.5647059, 0]				
			},
			"name": "material_mat5"
		}
	},
	"nodes": {
		"node_MeshObject-901023104-PolyPaper23": {
			"name": "node_MeshObject-901023104-PolyPaper23",
			"meshes": [
				"mesh_m0-PolyPaper23_-129190"
			],
			"matrix": [1, 0, 0, 0, 0, 1, 0, 0, 0, 0, 1, 0, 0, 0, 0, 1]
		},
		"node_MeshObject1426744896-PolyPaper5": {
			"name": "node_MeshObject1426744896-PolyPaper5",
			"meshes": [
				"mesh_m1-PolyPaper5_-129174"
			],
			"matrix": [1, 0, 0, 0, 0, 1, 0, 0, 0, 0, 1, 0, 0, 0, 0, 1]
		}
	},
	"scene": "defaultScene",
	"scenes": {
		"defaultScene": {
			"nodes": [
				"node_MeshObject-901023104-PolyPaper23",
				"node_MeshObject1426744896-PolyPaper5"
			],
			"extras": {

			}
		}
	}
}